PathFileType	4	(X/Y/Z)	/Users/itak/Documents/Research/Walk-IL/dataset/trc/00279_00010.trc
DataRate	CameraRate	NumFrames	NumMarkers	Units	OrigDataRate	OrigDataStartFrame	OrigNumFrames
100.000000	100.000000	4	53	mm	100.000000	564	752
Frame#	Time	RPSI			LPSI			L3			STRN			T10			C7			CLAV			RBAK			LBAK			LSHO			LUPA			LAEL			LAOL			LWTS			LWPS			LFRA			LIFD			LHPS			LHTS			RSHO			RUPA			RAEL			RAOL			RWTS			RWPS			RFRA			RIFD			RHTS			RHPS			RBHD			LFHD			RFHD			LBHD			LHIP			RHIP			RASI			LASI			LKNE			LTHI			LANK			LTIP			LTOE			LMT1			LMT5			LHEE			RKNE			RTHI			RANK			RTIP			RTOE			RMT1			RMT5			RHEE			
		X1	Y1	Z1	X2	Y2	Z2	X3	Y3	Z3	X4	Y4	Z4	X5	Y5	Z5	X6	Y6	Z6	X7	Y7	Z7	X8	Y8	Z8	X9	Y9	Z9	X10	Y10	Z10	X11	Y11	Z11	X12	Y12	Z12	X13	Y13	Z13	X14	Y14	Z14	X15	Y15	Z15	X16	Y16	Z16	X17	Y17	Z17	X18	Y18	Z18	X19	Y19	Z19	X20	Y20	Z20	X21	Y21	Z21	X22	Y22	Z22	X23	Y23	Z23	X24	Y24	Z24	X25	Y25	Z25	X26	Y26	Z26	X27	Y27	Z27	X28	Y28	Z28	X29	Y29	Z29	X30	Y30	Z30	X31	Y31	Z31	X32	Y32	Z32	X33	Y33	Z33	X34	Y34	Z34	X35	Y35	Z35	X36	Y36	Z36	X37	Y37	Z37	X38	Y38	Z38	X39	Y39	Z39	X40	Y40	Z40	X41	Y41	Z41	X42	Y42	Z42	X43	Y43	Z43	X44	Y44	Z44	X45	Y45	Z45	X46	Y46	Z46	X47	Y47	Z47	X48	Y48	Z48	X49	Y49	Z49	X50	Y50	Z50	X51	Y51	Z51	X52	Y52	Z52	X53	Y53	Z53	

565	5.64	-491.2279357910156	989.2689208984375	308.3043823242188	-315.6397094726562	985.8460693359375	303.04931640625	-396.4632263183594	1060.274169921875	322.1992797851562	-373.5724182128906	1238.013671875	573.3787841796875	-392.1893005371094	1178.297729492188	307.661376953125	-358.7564392089844	1422.475952148438	352.3788757324219	-365.0828247070312	1337.753295898438	509.8536987304688	-446.4000854492188	1290.47802734375	304.2185363769531	-257.8248901367188	1379.644287109375	331.1199951171875	-203.7956237792969	1383.288818359375	420.7557983398438	-134.0066986083984	1267.43212890625	385.576171875	-120.1055450439453	1069.390869140625	385.3965454101562	-182.5218963623047	1049.189697265625	326.2724914550781	-149.8463745117188	893.4767456054688	531.42138671875	-93.06023406982422	867.2990112304688	494.728271484375	-105.9673538208008	976.3021240234375	421.0102844238281	-138.8229827880859	720.599609375	605.6865844726562	-91.24594116210938	788.0244140625	532.5645141601562	-122.0318145751953	810.7252807617188	585.9395141601562	-514.1484985351562	1410.9033203125	426.5273742675781	-585.5546264648438	1358.708740234375	422.223388671875	-653.4385986328125	1096.931884765625	413.0124206542969	-565.3047485351562	1082.0361328125	380.6797485351562	-619.289794921875	878.8720092773438	528.646728515625	-692.2833862304688	875.1276245117188	482.8384094238281	-669.693115234375	1030.6171875	438.9049987792969	-621.9568481445312	697.4061279296875	534.1222534179688	-645.1531372070312	766.3887939453125	565.8947143554688	-694.9031372070312	763.6248168945312	515.301025390625	-421.1104736328125	1594.759155273438	412.9417419433594	-252.0459747314453	1592.723388671875	542.8012084960938	-339.2586364746094	1603.130126953125	571.2361450195312	-283.4419250488281	1569.352661132812	370.8303833007812	-208.1726379394531	941.381103515625	386.5639038085938	-589.046875	940.7449340820312	413.4208679199219	-511.1953430175781	947.9876708984375	529.1041259765625	-259.9796752929688	945.677490234375	509.4475402832031	-302.5894470214844	478.0682373046875	495.9796447753906	-257.3715209960938	615.7484741210938	469.9174499511719	-395.0906066894531	49.51456069946289	410.8871154785156	-341.2491760253906	249.5186920166016	455.4402770996094	-451.5492248535156	38.43271636962891	621.7605590820312	-490.35009765625	30.41670036315918	548.7174072265625	-380.0910034179688	43.94668960571289	534.8030395507812	-456.4747924804688	39.91217803955078	368.2766418457031	-586.6831665039062	504.340087890625	587.7383422851562	-593.0557861328125	751.8924560546875	518.1063842773438	-657.16259765625	219.7021179199219	244.9500274658203	-594.6404418945312	397.0304870605469	534.0015258789062	-572.2676391601562	74.52017211914062	352.1010131835938	-540.6299438476562	120.6809463500977	311.2124633789062	-657.8078002929688	126.5526809692383	295.3119812011719	-615.102294921875	265.2187194824219	208.7322235107422	
566	5.65	-493.6040344238281	989.1909790039062	317.0342712402344	-318.1101379394531	985.8741455078125	308.1424255371094	-397.6459350585938	1060.440551757812	328.3832092285156	-371.0636596679688	1238.580810546875	579.6638793945312	-392.4891052246094	1178.867309570312	314.0172729492188	-358.8746948242188	1423.1142578125	358.7847900390625	-363.5260009765625	1338.35595703125	516.087158203125	-446.615478515625	1290.864990234375	311.1775512695312	-258.028076171875	1380.547119140625	336.5564270019531	-203.1750030517578	1384.295532226562	425.6761474609375	-133.4782562255859	1268.426391601562	390.1530151367188	-119.2908325195312	1070.840576171875	390.6583557128906	-181.9407348632812	1049.654907226562	332.1134948730469	-147.0188598632812	898.6057739257812	540.7783203125	-90.69713592529297	871.5220336914062	504.1033020019531	-104.469108581543	978.7197265625	427.8599243164062	-135.1120758056641	727.8416748046875	619.5408325195312	-88.32418823242188	793.2784423828125	544.052001953125	-118.5846176147461	817.38525390625	597.1478271484375	-513.6719360351562	1411.07275390625	434.0583801269531	-584.9939575195312	1358.810302734375	430.05615234375	-652.6254272460938	1096.969482421875	420.4067993164062	-564.42919921875	1082.1591796875	388.283203125	-618.425048828125	879.7306518554688	537.3258056640625	-691.1043090820312	875.2022705078125	490.9418029785156	-668.8809814453125	1030.54931640625	446.3863220214844	-620.9857177734375	698.2213745117188	546.018310546875	-644.5302124023438	767.9071044921875	576.2705078125	-693.707275390625	764.2242431640625	525.0272827148438	-420.9357604980469	1595.245483398438	420.5422058105469	-251.5135803222656	1592.9052734375	549.8432006835938	-338.6901245117188	1602.972045898438	578.6080932617188	-283.3622741699219	1570.365234375	377.8262023925781	-207.8972930908203	941.8654174804688	391.0123291015625	-588.7853393554688	941.1766967773438	424.3523864746094	-508.7101440429688	948.931884765625	538.513916015625	-257.8849182128906	946.2534790039062	513.58544921875	-302.0101318359375	477.8717041015625	497.808837890625	-257.3004150390625	615.788818359375	472.1825561523438	-395.2854614257812	49.64905548095703	410.924072265625	-341.2003784179688	249.6072387695312	456.2451171875	-451.4337158203125	38.42165374755859	621.8572998046875	-490.2802429199219	30.43449974060059	548.7395629882812	-380.0216369628906	43.88357543945312	534.8132934570312	-456.6720581054688	40.26810073852539	368.3467712402344	-580.9833374023438	507.552734375	606.3993530273438	-590.001220703125	754.0988159179688	532.4328002929688	-662.0155639648438	211.9337921142578	275.0304870605469	-590.3020629882812	398.2552490234375	555.9513549804688	-575.1754150390625	72.92623138427734	388.7979431152344	-544.380615234375	115.8071975708008	344.0791625976562	-661.9364013671875	122.492057800293	331.42822265625	-620.9458618164062	255.0043640136719	234.9860382080078	
567	5.66	-495.9888305664062	989.135498046875	325.8613891601562	-320.6770629882812	985.8710327148438	313.2496643066406	-398.918212890625	1060.659301757812	334.51025390625	-368.4345397949219	1239.088500976562	585.830810546875	-392.8707580566406	1179.377685546875	320.3152465820312	-358.9651489257812	1423.69384765625	365.0943908691406	-361.8790283203125	1338.8994140625	522.2210693359375	-446.8944396972656	1291.19873046875	318.091796875	-258.2363891601562	1381.362426757812	341.8520812988281	-202.5072784423828	1385.210083007812	430.4237365722656	-132.9574737548828	1269.294799804688	394.544677734375	-118.5585098266602	1072.15478515625	395.7449340820312	-181.4110260009766	1050.031127929688	337.7472534179688	-144.4028015136719	903.5439453125	549.6378173828125	-88.46669006347656	875.6260986328125	513.0891723632812	-103.0827560424805	981.0138549804688	434.4534606933594	-131.5913391113281	734.9546508789062	632.7408447265625	-85.54248809814453	798.431640625	555.052001953125	-115.3743209838867	823.87841796875	607.7968139648438	-513.12353515625	1411.220581054688	441.576416015625	-584.3786010742188	1358.90283203125	437.9026184082031	-651.801025390625	1097.00341796875	427.8673400878906	-563.560546875	1082.277587890625	395.908203125	-617.48583984375	880.5673217773438	546.0155029296875	-689.9110717773438	875.2979736328125	499.1484680175781	-668.101318359375	1030.539428710938	453.9615783691406	-619.8629760742188	699.0195922851562	557.5999145507812	-643.71044921875	769.310791015625	586.4560546875	-692.4899291992188	764.8598022460938	534.6904907226562	-420.70751953125	1595.655883789062	428.0525817871094	-250.9642791748047	1593.03466796875	556.83251953125	-338.103271484375	1602.73046875	585.9041137695312	-283.2114562988281	1571.354614257812	384.7602844238281	-207.6758728027344	942.264892578125	395.31103515625	-588.448974609375	941.6087646484375	435.3260803222656	-506.1608581542969	949.8847045898438	547.9694213867188	-255.8405151367188	946.752197265625	517.5894165039062	-301.4988098144531	477.6942443847656	499.746337890625	-257.30908203125	615.8304443359375	474.5232543945312	-395.5121459960938	49.80915832519531	410.976806640625	-341.1808166503906	249.7075653076172	457.1258239746094	-451.3194885253906	38.41131591796875	621.9656372070312	-490.2159729003906	30.44411849975586	548.76513671875	-379.9697875976562	43.83034133911133	534.828125	-456.8983154296875	40.63716125488281	368.4265441894531	-575.0482788085938	510.5997009277344	624.0828857421875	-586.831298828125	756.184814453125	546.3699951171875	-666.21484375	203.4266662597656	305.85107421875	-585.6137084960938	399.2818908691406	577.2928466796875	-576.8297729492188	71.18353271484375	425.8023986816406	-547.213134765625	110.5823745727539	377.388427734375	-665.0513916015625	118.1342086791992	368.1662902832031	-626.361328125	243.7549285888672	261.95068359375	
568	5.67	-498.3599548339844	989.1070556640625	334.7802124023438	-323.3251953125	985.8334350585938	318.3820495605469	-400.26904296875	1060.938354492188	340.5933532714844	-365.6976623535156	1239.538330078125	591.887451171875	-393.3518371582031	1179.8369140625	326.5659484863281	-359.0395202636719	1424.218872070312	371.31787109375	-360.1515808105469	1339.381103515625	528.2615966796875	-447.2507019042969	1291.489501953125	324.9742126464844	-258.4608764648438	1382.094970703125	347.0149230957031	-201.8052062988281	1386.0341796875	435.0065002441406	-132.4522857666016	1270.042358398438	398.7590637207031	-117.9047775268555	1073.32763671875	400.6624450683594	-180.9344482421875	1050.3212890625	343.1800842285156	-141.9972229003906	908.2564697265625	558.0040893554688	-86.37525177001953	879.577392578125	521.6681518554688	-101.8107528686523	983.1674194335938	440.7847290039062	-128.24609375	741.8783569335938	645.2669677734375	-82.91320037841797	803.4403686523438	565.5401000976562	-112.3937606811523	830.15478515625	617.8773193359375	-512.5068969726562	1411.351684570312	449.1011657714844	-583.7119750976562	1358.991088867188	445.7870178222656	-650.9683227539062	1097.038818359375	435.4266052246094	-562.7034301757812	1082.395751953125	403.5782470703125	-616.458251953125	881.36328125	554.7102661132812	-688.7013549804688	875.4164428710938	507.4801330566406	-667.3570556640625	1030.607299804688	461.6693420410156	-618.588623046875	699.7626953125	568.7929077148438	-642.677490234375	770.5571899414062	596.4076538085938	-691.2479858398438	765.5140380859375	544.280029296875	-420.4316711425781	1595.991088867188	435.4794921875	-250.3857421875	1593.114013671875	563.7586669921875	-337.4824523925781	1602.416259765625	593.122314453125	-283.0006713867188	1572.3076171875	391.6294555664062	-207.4949340820312	942.5763549804688	399.476806640625	-588.0403442382812	942.0476684570312	446.3240356445312	-503.5382080078125	950.850341796875	557.4559326171875	-253.8321838378906	947.169921875	521.4751586914062	-301.0470275878906	477.5310363769531	501.789794921875	-257.4008178710938	615.8650512695312	476.9423217773438	-395.7656860351562	49.99227142333984	411.0468444824219	-341.1812133789062	249.8165435791016	458.0775756835938	-451.2055358886719	38.40224075317383	622.0838012695312	-490.1505126953125	30.45051383972168	548.7979736328125	-379.9316101074219	43.78752517700195	534.8487548828125	-457.149169921875	41.02238082885742	368.5145874023438	-568.9568481445312	513.4405517578125	640.76416015625	-583.5802612304688	758.1239624023438	559.8897705078125	-669.6489868164062	194.2708129882812	337.39990234375	-580.6295776367188	400.1245727539062	598.0074462890625	-577.0621337890625	69.388427734375	462.9319763183594	-548.9523315429688	105.1539993286133	411.0253601074219	-666.9741821289062	113.5246429443359	405.3777160644531	-631.2686157226562	231.6129913330078	289.6921691894531	
